<svg width="255" height="69" viewBox="0 0 255 69" fill="none" xmlns="http://www.w3.org/2000/svg">
<path d="M250.042 1.3047C251.86 1.3047 253.38 2.77587 253.38 4.62108V48.3169C253.38 49.5841 252.658 50.7406 251.519 51.2968L218.767 67.2957C218.313 67.5172 217.816 67.6323 217.311 67.6323H4.65137C2.81979 67.6323 1.33499 66.1475 1.33499 64.3159V23.6798C1.33499 22.3984 2.0732 21.2317 3.23117 20.6829L43.4489 1.62418C43.8957 1.41246 44.3874 1.3047 44.8754 1.3047H45.3445H45.8129H46.2804H46.7471H47.2131H47.6783H48.1427H48.6063H49.0692H49.5313H49.9926H50.4532H50.913H51.3721H51.8304H52.288H52.7448H53.2009H53.6562H54.1108H54.5647H55.0178H55.4702H55.9219H56.3729H56.8231H57.2727H57.7215H58.1696H58.617H59.0637H59.5097H59.955H60.3996H60.8436H61.2868H61.7294H62.1712H62.6124H63.0529H63.4928H63.932H64.3705H64.8083H65.2455H65.6821H66.118H66.5532H66.9878H67.4218H67.8551H68.2877H68.7198H69.1512H69.5819H70.0121H70.4416H70.8705H71.2988H71.7265H72.1535H72.58H73.0059H73.4311H73.8558H74.2798H74.7033H75.1262H75.5485H75.9702H76.3914H76.8119H77.2319H77.6513H78.0702H78.4885H78.9062H79.3234H79.74H80.1561H80.5716H80.9865H81.401H81.8149H82.2282H82.641H83.0533H83.4651H83.8763H84.2871H84.6973H85.107H85.5161H85.9248H86.333H86.7406H87.1478H87.5545H87.9606H88.3663H88.7715H89.1763H89.5805H89.9843H90.3875H90.7903H91.1927H91.5946H91.996H92.397H92.7975H93.1975H93.5971H93.9963H94.395H94.7932H95.1911H95.5885H95.9855H96.382H96.7781H97.1738H97.5691H97.9639H98.3584H98.7524H99.1461H99.5393H99.9321H100.325H100.717H101.108H101.499H101.89H102.281H102.671H103.061H103.45H103.839H104.228H104.616H105.004H105.391H105.779H106.165H106.552H106.938H107.324H107.709H108.094H108.479H108.864H109.248H109.632H110.015H110.398H110.781H111.164H111.546H111.928H112.31H112.691H113.072H113.453H113.833H114.214H114.593H114.973H115.352H115.731H116.11H116.489H116.867H117.245H117.623H118H118.378H118.755H119.131H119.508H119.884H120.26H120.636H121.011H121.387H121.762H122.137H122.511H122.886H123.26H123.634H124.008H124.382H124.755H125.128H125.501H125.874H126.247H126.619H126.992H127.364H127.736H128.107H128.479H128.85H129.222H129.593H129.964H130.334H130.705H131.076H131.446H131.816H132.186H132.556H132.926H133.296H133.665H134.035H134.404H134.773H135.142H135.511H135.88H136.249H136.617H136.986H137.354H137.723H138.091H138.459H138.827H139.195H139.563H139.931H140.299H140.667H141.035H141.402H141.77H142.137H142.505H142.872H143.239H143.607H143.974H144.341H144.708H145.076H145.443H145.81H146.177H146.544H146.911H147.278H147.645H148.012H148.379H148.746H149.113H149.481H149.848H150.215H150.582H150.949H151.316H151.683H152.05H152.418H152.785H153.152H153.519H153.887H154.254H154.622H154.989H155.357H155.724H156.092H156.46H156.828H157.196H157.564H157.932H158.3H158.668H159.036H159.405H159.773H160.142H160.51H160.879H161.248H161.617H161.986H162.355H162.725H163.094H163.464H163.834H164.203H164.573H164.944H165.314H165.684H166.055H166.425H166.796H167.167H167.538H167.91H168.281H168.653H169.025H169.397H169.769H170.141H170.514H170.886H171.259H171.632H172.006H172.379H172.753H173.127H173.501H173.875H174.25H174.624H174.999H175.375H175.75H176.126H176.501H176.878H177.254H177.63H178.007H178.384H178.762H179.139H179.517H179.895H180.273H180.652H181.031H181.41H181.79H182.169H182.549H182.93H183.31H183.691H184.072H184.454H184.835H185.217H185.6H185.982H186.365H186.749H187.132H187.516H187.9H188.285H188.67H189.055H189.441H189.827H190.213H190.599H190.986H191.374H191.761H192.149H192.538H192.926H193.316H193.705H194.095H194.485H194.876H195.267H195.658H196.05H196.442H196.835H197.227H197.621H198.015H198.409H198.803H199.198H199.594H199.99H200.386H200.782H201.18H201.577H201.975H202.373H202.772H203.172H203.571H203.972H204.372H204.773H205.175H205.577H205.979H206.382H206.786H207.19H207.594H207.999H208.404H208.81H209.216H209.623H210.031H210.438H210.847H211.256H211.665H212.075H212.485H212.896H213.307H213.719H214.132H214.545H214.958H215.372H215.787H216.202H216.618H217.034H217.451H217.868H218.286H218.704H219.123H219.543H219.963H220.384H220.805H221.227H221.65H222.073H222.496H222.921H223.345H223.771H224.197H224.624H225.051H225.479H225.907H226.336H226.766H227.196H227.627H228.059H228.491H228.924H229.358H229.792H230.226H230.662H231.098H231.535H231.972H232.41H232.849H233.288H233.728H234.169H234.61H235.053H235.495H235.939H236.383H236.828H237.273H237.719H238.166H238.614H239.062H239.511H239.961H240.412H240.863H241.315H241.767H242.221H242.675H243.13H243.585H244.041H244.499H244.956H245.415H245.874H246.334H246.795H247.257H247.719H248.182H248.646H249.111H249.576H250.042Z" fill="url(#paint0_linear_2_356)" stroke="url(#paint1_linear_2_356)" stroke-width="2.21092"/>
<defs>
<linearGradient id="paint0_linear_2_356" x1="252.274" y1="2.41016" x2="-44.6856" y2="47.4342" gradientUnits="userSpaceOnUse">
<stop offset="0.183111" stop-color="#FF56F6"/>
<stop offset="0.432593" stop-color="#B936EE"/>
<stop offset="0.854443" stop-color="#3BACE2"/>
<stop offset="1" stop-color="#406AFF"/>
</linearGradient>
<linearGradient id="paint1_linear_2_356" x1="-1.93408" y1="66.5268" x2="260.88" y2="21.3818" gradientUnits="userSpaceOnUse">
<stop offset="0.473958" stop-color="#FFA6FA"/>
<stop offset="0.96875" stop-color="#3C79D5"/>
</linearGradient>
</defs>
</svg>
