<svg width="223" height="152" viewBox="0 0 223 152" fill="none" xmlns="http://www.w3.org/2000/svg">
<g filter="url(#filter0_bd_2_817)">
<path d="M164.309 58.1797C164.309 57.5282 163.781 57 163.129 57H53.6394C53.4647 57 53.2922 57.0388 53.1342 57.1136L31.6745 67.2832C31.2626 67.4784 31 67.8934 31 68.3493V90.0323C31 90.6838 31.5281 91.212 32.1797 91.212H145.653C145.832 91.212 146.009 91.171 146.171 91.0923L163.647 82.5554C164.052 82.3575 164.309 81.9462 164.309 81.4954V58.1797Z" fill="url(#paint0_linear_2_817)"/>
<path d="M163.129 56.4101C164.106 56.4101 164.899 57.2024 164.899 58.1797V81.4954C164.899 82.1716 164.513 82.7886 163.906 83.0854L146.429 91.6223C146.188 91.7404 145.922 91.8018 145.653 91.8018H32.1797C31.2024 91.8018 30.4101 91.0096 30.4101 90.0323V68.3493C30.4101 67.6655 30.804 67.043 31.4219 66.7502L52.8816 56.5806C53.1185 56.4684 53.3773 56.4101 53.6394 56.4101H163.129Z" stroke="url(#paint1_linear_2_817)" stroke-width="1.17972"/>
</g>
<defs>
<filter id="filter0_bd_2_817" x="-83.4333" y="-57.4332" width="362.175" height="263.078" filterUnits="userSpaceOnUse" color-interpolation-filters="sRGB">
<feFlood flood-opacity="0" result="BackgroundImageFix"/>
<feGaussianBlur in="BackgroundImageFix" stdDeviation="56.6267"/>
<feComposite in2="SourceAlpha" operator="in" result="effect1_backgroundBlur_2_817"/>
<feColorMatrix in="SourceAlpha" type="matrix" values="0 0 0 0 0 0 0 0 0 0 0 0 0 0 0 0 0 0 127 0" result="hardAlpha"/>
<feOffset dy="2.35945"/>
<feGaussianBlur stdDeviation="28.6083"/>
<feComposite in2="hardAlpha" operator="out"/>
<feColorMatrix type="matrix" values="0 0 0 0 1 0 0 0 0 0.337255 0 0 0 0 0.964706 0 0 0 0.51 0"/>
<feBlend mode="normal" in2="effect1_backgroundBlur_2_817" result="effect2_dropShadow_2_817"/>
<feBlend mode="normal" in="SourceGraphic" in2="effect2_dropShadow_2_817" result="shape"/>
</filter>
<linearGradient id="paint0_linear_2_817" x1="164.309" y1="57" x2="5.85398" y2="81.0244" gradientUnits="userSpaceOnUse">
<stop offset="0.183111" stop-color="#FF56F6"/>
<stop offset="0.432593" stop-color="#B936EE"/>
<stop offset="0.854443" stop-color="#3BACE2"/>
<stop offset="1" stop-color="#406AFF"/>
</linearGradient>
<linearGradient id="paint1_linear_2_817" x1="28.6658" y1="91.212" x2="168.901" y2="67.1231" gradientUnits="userSpaceOnUse">
<stop offset="0.473958" stop-color="#FFA6FA"/>
<stop offset="0.96875" stop-color="#3C79D5"/>
</linearGradient>
</defs>
</svg>
